<svg xmlns="http://www.w3.org/2000/svg" width="22.843" height="18.895" viewBox="0 0 22.843 18.895"><defs><style>.a{fill:#024e8a;}</style></defs><path class="a" d="M-2261.862,97.693h-20.066a1.39,1.39,0,0,1-1.389-1.389V83.4a1.39,1.39,0,0,1,1.389-1.389h4.536l.37-2a1.48,1.48,0,0,1,1.457-1.212h7.478a1.482,1.482,0,0,1,1.457,1.211l.369,2h4.4a1.39,1.39,0,0,1,1.388,1.389V96.3A1.39,1.39,0,0,1-2261.862,97.693Zm-19.223-2.232h18.379V84.245h-5.412l-.593-3.214h-6.229l-.594,3.214h-5.551Zm6.259-15.046v0Z" transform="translate(2283.317 -78.799)"/><path class="a" d="M-2150.375,201.78a4.924,4.924,0,0,1-4.918-4.918,4.924,4.924,0,0,1,4.918-4.918,4.924,4.924,0,0,1,4.918,4.918A4.924,4.924,0,0,1-2150.375,201.78Zm0-7.6a2.689,2.689,0,0,0-2.686,2.686,2.689,2.689,0,0,0,2.686,2.686,2.689,2.689,0,0,0,2.686-2.686A2.689,2.689,0,0,0-2150.375,194.175Z" transform="translate(2161.789 -186.203)"/></svg>