<svg xmlns="http://www.w3.org/2000/svg" width="20.023" height="20.024" viewBox="0 0 20.023 20.024"><defs><style>.a{fill:#024e8a;}</style></defs><path class="a" d="M-503.807,1874.632h-9.7a3.443,3.443,0,0,1-3.439-3.439v-9.7a3.443,3.443,0,0,1,3.439-3.439h9.7a3.443,3.443,0,0,1,3.439,3.439v9.7A3.443,3.443,0,0,1-503.807,1874.632Zm-9.7-14.348a1.208,1.208,0,0,0-1.207,1.207v9.7a1.208,1.208,0,0,0,1.207,1.207h9.7a1.208,1.208,0,0,0,1.207-1.207v-9.7a1.208,1.208,0,0,0-1.207-1.207Z" transform="translate(516.949 -1858.051)"/><path class="a" d="M-392.467,1985.972h-9.7a1.116,1.116,0,0,1-1.116-1.116,1.116,1.116,0,0,1,1.116-1.116h9.7a1.208,1.208,0,0,0,1.207-1.207v-9.7a1.116,1.116,0,0,1,1.116-1.116,1.116,1.116,0,0,1,1.116,1.116v9.7A3.443,3.443,0,0,1-392.467,1985.972Z" transform="translate(409.052 -1965.948)"/></svg>