<svg xmlns="http://www.w3.org/2000/svg" width="23.417" height="21.715" viewBox="0 0 23.417 21.715"><defs><style>.a{fill:#fff;}</style></defs><g transform="translate(-324.719 -173.608)"><g transform="translate(330.176 182.284)"><path class="a" d="M-1023.4,212.261a1.346,1.346,0,0,0-1.344,1.344,1.346,1.346,0,0,0,1.344,1.344,1.346,1.346,0,0,0,1.344-1.344A1.346,1.346,0,0,0-1023.4,212.261Z" transform="translate(1024.746 -212.261)"/><path class="a" d="M-926.673,212.261a1.346,1.346,0,0,0-1.344,1.344,1.346,1.346,0,0,0,1.344,1.344,1.346,1.346,0,0,0,1.344-1.344A1.346,1.346,0,0,0-926.673,212.261Z" transform="translate(932.924 -212.261)"/><path class="a" d="M-829.946,212.261a1.346,1.346,0,0,0-1.344,1.344,1.346,1.346,0,0,0,1.344,1.344,1.346,1.346,0,0,0,1.344-1.344A1.346,1.346,0,0,0-829.946,212.261Z" transform="translate(841.104 -212.261)"/></g><path class="a" d="M-1120.609,43.477c5.234,0,9.476,3.462,9.476,7.733s-4.243,7.733-9.476,7.733c-.354,0-.7-.016-1.049-.047l-3.489,1.832.252-2.619c-3.08-1.277-5.191-3.886-5.191-6.9,0-4.271,4.243-7.733,9.476-7.733m0-2.232a12.821,12.821,0,0,0-8.112,2.768,10.045,10.045,0,0,0-2.6,3.16,8.694,8.694,0,0,0-1,4.037,8.917,8.917,0,0,0,1.9,5.46,10.928,10.928,0,0,0,3.152,2.749l-.106,1.095a2.233,2.233,0,0,0,.977,2.067,2.231,2.231,0,0,0,1.245.38,2.23,2.23,0,0,0,1.037-.256l2.934-1.54c.19.008.379.012.566.012a12.821,12.821,0,0,0,8.112-2.768,10.046,10.046,0,0,0,2.6-3.16,8.7,8.7,0,0,0,1-4.037,8.7,8.7,0,0,0-1-4.037,10.046,10.046,0,0,0-2.6-3.16,12.821,12.821,0,0,0-8.112-2.768Z" transform="translate(1457.036 132.363)"/></g></svg>