<svg xmlns="http://www.w3.org/2000/svg" width="23.022" height="23.022" viewBox="0 0 23.022 23.022"><defs><style>.a{fill:#fff;}</style></defs><g transform="translate(-295.479 -173.314)"><g transform="translate(301.039 178.879)"><path class="a" d="M-1599.1,157.038l2.872-9.021,9.013-2.87v0l.018-.006-1.421,4.436-1.459,4.585Zm4.649-7.244-1.212,3.808,3.807-1.212,1.213-3.808Z" transform="translate(1599.102 -145.145)"/></g><path class="a" d="M-1697.194,58.466a11.436,11.436,0,0,1-8.14-3.372,11.436,11.436,0,0,1-3.372-8.14,11.435,11.435,0,0,1,3.372-8.14,11.435,11.435,0,0,1,8.14-3.372,11.436,11.436,0,0,1,8.14,3.372,11.435,11.435,0,0,1,3.372,8.14,11.436,11.436,0,0,1-3.372,8.14A11.436,11.436,0,0,1-1697.194,58.466Zm0-20.79a9.29,9.29,0,0,0-9.279,9.279,9.29,9.29,0,0,0,9.279,9.279,9.29,9.29,0,0,0,9.279-9.279A9.29,9.29,0,0,0-1697.194,37.675Z" transform="translate(2004.184 137.871)"/></g></svg>