<svg xmlns="http://www.w3.org/2000/svg" width="20.903" height="20.903" viewBox="0 0 20.903 20.903"><defs><style>.a{fill:#024e8a;}</style></defs><path class="a" d="M-2586.734,1278.145v-2.232h-3.077l4.059-4.059-1.578-1.578-4.059,4.059v-3.077h-2.232v6.888Z" transform="translate(2606.655 -1270.275)"/><path class="a" d="M-2844.9,1274.334l-4.059-4.059-1.579,1.578,4.059,4.059h-3.077v2.232h6.887v-6.888h-2.232Z" transform="translate(2850.541 -1270.275)"/><path class="a" d="M-2849.559,1527.194v2.232h3.077l-4.059,4.059,1.579,1.578,4.059-4.059v3.077h2.232v-6.888Z" transform="translate(2850.541 -1514.161)"/><path class="a" d="M-2586.734,1529.426v-2.232h-6.888v6.888h2.232V1531l4.059,4.059,1.578-1.578-4.059-4.059Z" transform="translate(2606.655 -1514.16)"/></svg>