<svg xmlns="http://www.w3.org/2000/svg" width="21.254" height="20.142" viewBox="0 0 21.254 20.142"><defs><style>.a{fill:#024e8a;}</style></defs><path class="a" d="M-2844.683,211.463v9.549h-16.79v-9.549h-2.232v10.665a1.116,1.116,0,0,0,1.116,1.116h19.021a1.116,1.116,0,0,0,1.116-1.116V211.463Z" transform="translate(2863.704 -203.103)"/><path class="a" d="M-2781.866,62.541a1.112,1.112,0,0,0,.789-.327l6.316-6.317-1.578-1.578-4.412,4.411V46.661h-2.232v12.07l-4.411-4.411-1.578,1.578,6.317,6.317A1.112,1.112,0,0,0-2781.866,62.541Z" transform="translate(2792.763 -46.661)"/></svg>