<svg xmlns="http://www.w3.org/2000/svg" width="19.314" height="19.314" viewBox="0 0 19.314 19.314"><defs><style>.a{fill:#fff;}</style></defs><path class="a" d="M-2215.79,1878.182c0-.035,0-.069,0-.1,0,0,0,0,0-.005,0-.034-.008-.067-.014-.1v-.006c-.007-.033-.014-.065-.024-.1l0-.008c-.01-.031-.021-.062-.032-.093l0-.01a.95.95,0,0,0-.041-.088l-.006-.012c-.015-.029-.032-.056-.049-.083l-.007-.011c-.019-.028-.039-.055-.06-.082l-.005-.007a1.118,1.118,0,0,0-.157-.158l-.007-.005c-.026-.021-.053-.041-.082-.06l-.011-.007c-.027-.017-.054-.034-.083-.049l-.012-.006c-.028-.015-.057-.028-.087-.04l-.01,0c-.03-.012-.061-.023-.093-.032l-.008,0c-.032-.009-.065-.017-.1-.024h-.006c-.033-.006-.067-.011-.1-.014h-.006c-.034,0-.068,0-.1,0h-9.7v2.232h7.047a1.1,1.1,0,0,0-.2.16l-13.113,13.113v-7h-2.232v9.7c0,.035,0,.069,0,.1a.031.031,0,0,0,0,0c0,.034.009.068.015.1v.006c.006.033.014.066.024.1l0,.008c.01.031.021.063.032.093l0,.01c.012.03.026.059.041.087l.006.012c.015.028.032.056.049.083l.008.012c.019.028.039.055.059.081l.006.008a1.071,1.071,0,0,0,.074.082h0q.039.039.082.074l.008.006c.026.021.053.041.081.059l.012.008c.027.017.054.034.082.049l.013.007c.028.015.057.028.087.04l.011,0c.03.012.061.023.092.032l.008,0c.032.009.064.017.1.024h.006c.033.007.067.011.1.015h.006c.034,0,.068,0,.1,0h9.7v-2.232h-7l13.112-13.113a1.117,1.117,0,0,0,.16-.2v7.047h2.232v-9.7Z" transform="translate(2235.104 -1877.066)"/></svg>