<svg xmlns="http://www.w3.org/2000/svg" width="20.697" height="20.699" viewBox="0 0 20.697 20.699"><defs><style>.a{fill:#024e8a;}</style></defs><g transform="translate(0 0.001)"><path class="a" d="M-3170.256,1272.3h-5.772v2.232h3.077l-4.059,4.059,1.578,1.578,4.059-4.059v3.077h2.232V1272.3Z" transform="translate(3189.838 -1272.3)"/><path class="a" d="M-3422.991,1274.532V1272.3h-6.888v6.888h2.232v-3.077l4.059,4.059,1.578-1.578-4.059-4.059Z" transform="translate(3429.879 -1272.3)"/><path class="a" d="M-3423.588,1525.169l-4.059,4.059v-3.077h-2.232v6.888h6.888v-2.232h-3.077l4.059-4.059Z" transform="translate(3429.879 -1512.341)"/><path class="a" d="M-3171.373,1529.228l-4.059-4.059-1.578,1.578,4.059,4.059h-3.077v2.232h6.888v-6.888h-2.232Z" transform="translate(3189.838 -1512.341)"/></g></svg>