<svg xmlns="http://www.w3.org/2000/svg" width="22.586" height="22.982" viewBox="0 0 22.586 22.982"><defs><style>.a{fill:#024e8a;}</style></defs><path class="a" d="M43.233,662.012a1.308,1.308,0,0,1,.218.018,1.286,1.286,0,0,1,.14.032l.068.022c.03.011.059.022.088.035l.022.01c.029.013.057.027.085.042s.055.032.081.049l.02.013.045.033c.018.014.036.027.054.042l.018.015c.025.022.05.045.074.069h0q.043.044.083.093l.007.009c.017.021.032.042.047.064h0c.015.022.03.044.043.066h0c.014.023.028.047.041.071s.036.071.051.107.019.049.028.074l.006.018c.008.025.016.05.023.075s.01.038.014.057.007.036.01.054.006.035.008.053h0c0,.022.005.044.007.066q0,.059,0,.118,0,.03,0,.06v.011a1.448,1.448,0,0,1-.029.193l-.774,3.379-.082.357-.219.956-.175.764,0,.011,0,0,0-.015v0l-.175-.764-.191-.833-.032-.138-.853-3.721c0-.02-.009-.04-.013-.059s-.006-.04-.009-.059a1.274,1.274,0,0,1-.011-.13c0-.029,0-.057,0-.086,0-.007,0-.014,0-.022,0-.029,0-.057.007-.085a1.269,1.269,0,0,1,.056-.25c.009-.026.018-.051.028-.076l0-.01c.01-.024.021-.049.033-.073s.022-.043.034-.064l0,0c.012-.022.025-.043.039-.064l.037-.054.04-.053c.026-.032.053-.063.082-.092h0q.04-.042.084-.079l.008-.007c.029-.024.058-.048.089-.07a1.281,1.281,0,0,1,.317-.163,1.293,1.293,0,0,1,.427-.072m3.447.783h.071l.038,0,.033,0,.039.005.032,0,.039.008.032.006.04.01.03.008.042.013.027.009.044.017.024.009.06.027.007,0,.065.034.063.037.06.04a1.272,1.272,0,0,1,.3.3c.014.019.027.039.04.059a1.287,1.287,0,0,1,.132.28c.013.039.025.079.034.119s.012.058.016.086l0,.022c0,.029.007.058.009.086s0,.086,0,.129,0,.062-.006.092c0,.01,0,.02,0,.03s-.005.041-.009.061,0,.024-.007.036-.007.037-.012.055-.007.025-.01.037-.01.034-.015.051-.013.038-.02.056l-.005.014c-.01.024-.02.048-.031.072l-.009.019c-.009.018-.018.036-.028.054l-.011.02c-.013.023-.027.046-.041.068h0c-.011.017-.022.034-.034.051l-.037.048-2.379,2.987-.62.779-.488.613v0l-.01.011,0,0,0-.01.173-.766.215-.954.844-3.741c.007-.034.016-.067.027-.1s.022-.064.034-.1.023-.055.036-.082.027-.053.041-.079l.03-.051q.032-.05.068-.1l.037-.046q.038-.045.08-.086l.043-.041c.027-.024.054-.046.083-.067l.036-.026.035-.024.008-.005.046-.028c.029-.017.059-.034.09-.049l.067-.03.008,0,.011,0,.04-.015.009,0,.007,0,.021-.007.042-.013.013,0,.019,0,.039-.01.034-.007.037-.007.032,0,.039-.006.033,0,.038,0h.072m-6.908.006a.332.332,0,0,1,.051,0l.051.007.08.009.05.009c.029.005.058.012.086.019l.062.017.024.008.041.015.017.006.024.008.024.007.024.008.023.01.066.034.02.012.037.022c.032.02.062.04.092.063l.015.011q.04.031.078.065l.014.012c.027.025.052.051.077.078l.016.018c.025.028.048.057.07.087s.048.069.069.105c.011.018.021.037.031.055s.025.05.036.076l.008.02c.011.026.022.052.031.079h0c.007.022.014.044.021.067s.012.045.017.068l.852,3.741.217.953.174.765,0,.01h0v0l0,0,0,0,0,0,0,0-.49-.613-.436-.546-.175-.219-.257-.322-1.361-1.7-.776-.971-.028-.036,0,0-.018-.025-.027-.04s0,0,0,0a1.28,1.28,0,0,1-.065-.111c-.01-.019-.019-.038-.028-.058a1.274,1.274,0,0,1-.109-.62c0-.043.009-.086.016-.128q.006-.032.013-.064c.009-.04.02-.079.033-.118a1.282,1.282,0,0,1,.1-.22,1.277,1.277,0,0,1,.266-.334,1.3,1.3,0,0,1,.173-.13,1.313,1.313,0,0,1,.129-.071.32.32,0,0,1,.047-.018l.048-.016c.027-.011.055-.021.083-.029s.066-.019.1-.027.066-.014.1-.019l.08-.009.026,0,.029,0,.012,0,.036,0m9.688,2.2c.04,0,.08,0,.12.006l.026,0,.072.01a1.277,1.277,0,0,1,.275.079l.065.029a1.291,1.291,0,0,1,.125.069l.06.04.057.043.055.046a1.3,1.3,0,0,1,.1.1q.024.027.047.056a1.3,1.3,0,0,1,.155.246q.016.033.029.066a1.277,1.277,0,0,1,.1.561c0,.032-.005.064-.009.1h0c0,.016,0,.032-.007.048s-.009.048-.014.072-.014.055-.022.082l-.007.021c-.006.02-.013.04-.02.059l-.009.021c-.008.019-.015.038-.024.057l-.009.019c-.009.019-.018.039-.028.057l-.009.016c-.011.019-.022.039-.033.058l-.008.013c-.012.019-.025.039-.039.057l-.008.011c-.014.019-.028.038-.043.056l-.008.01c-.016.02-.033.039-.051.058h0l-.045.045h0c-.021.02-.043.04-.065.058s-.049.039-.075.058l-.013.009c-.026.018-.052.035-.079.051l-.025.015c-.025.015-.05.029-.076.041l-3.455,1.667-.882.425-.707.341,0,0,0,0h0l0-.007,0,0,.488-.615.3-.384.3-.384,2.383-3,.042-.051c.014-.016.029-.033.045-.048s.054-.052.082-.076l.019-.016c.026-.021.052-.042.08-.062h0l.033-.023h0c.022-.014.044-.028.066-.041l.009-.005c.023-.013.047-.026.071-.037l.058-.026.067-.026h0l.067-.022c.03-.009.061-.017.092-.023a1.329,1.329,0,0,1,.132-.021h0l.061-.005h.008l.068,0h0M37,665.017h0l.07,0,.033,0,.037,0,.044.006.026,0,.05.01.018,0,.054.013.012,0,.034.01.023.007.009,0,.057.021.007,0,.057.024.007,0,.043.021.024.013.064.036.021.013c.023.015.046.03.068.046l.044.034h0c.026.021.051.042.076.065l.046.046c.019.019.037.039.055.06L38,665.5l2.392,3,.61.765.488.613.006.008,0,0h0l0,0,0,0h0l0,0-.707-.34-.88-.422-3.46-1.661-.058-.029-.056-.032h0l-.054-.035c-.021-.015-.041-.03-.062-.046s-.06-.048-.088-.074-.054-.053-.079-.081l-.018-.02-.038-.047-.018-.022c-.018-.023-.035-.047-.051-.072s-.035-.058-.052-.088l-.007-.013c-.015-.029-.029-.058-.042-.088l-.007-.017c-.01-.024-.018-.048-.027-.072s-.008-.021-.011-.032c-.011-.034-.02-.068-.028-.1s-.016-.08-.021-.12h0c0-.025-.005-.05-.007-.075s0-.034,0-.051v-.005c0-.02,0-.04,0-.06v0q0-.029,0-.058c0-.024,0-.047.007-.071s0-.024.005-.036.005-.034.009-.05,0-.022.006-.032.012-.049.019-.074l.009-.029q.009-.03.02-.06l.008-.021c.01-.026.021-.051.032-.076l.011-.022c.011-.023.023-.046.035-.068l.005-.01c.014-.025.03-.05.046-.074l.012-.018c.017-.024.034-.049.053-.072s.031-.038.047-.056.044-.047.068-.07l.018-.017c.024-.022.048-.043.073-.063a1.281,1.281,0,0,1,.374-.207l.072-.023.01,0,.066-.017h0l.07-.013.08-.01h0l.06,0,.063,0M51,668.2h.01l.057,0,.023,0,.044,0,.027,0,.041.006.028,0,.039.008.028.006.039.01.027.008h0l.04.013.011,0,.015,0,.043.017.021.008.063.028.032.016.07.039h0q.041.025.08.052l.009.007q.033.023.064.048l.039.034.035.031c.024.023.048.047.07.072a1.268,1.268,0,0,1,.2.3q.016.033.029.066a1.339,1.339,0,0,1,.091.353,1.273,1.273,0,0,1-.041.5c-.006.02-.012.04-.019.059s-.014.038-.021.057-.023.057-.036.084-.021.043-.033.064-.028.049-.044.073l-.037.055-.041.054h0c-.015.019-.032.038-.048.057l-.016.017-.036.037-.018.018-.038.035-.017.015-.023.019-.048.037-.027.019-.047.032-.028.017-.052.03-.025.013c-.026.013-.053.026-.079.037s-.078.031-.119.044l-.061.017q-.062.016-.125.025l-.064.008h0a1.139,1.139,0,0,1-.13.007H45.39l0,0,.007,0h0l.492-.237.218-.106.879-.425,3.454-1.671.03-.013.06-.025.03-.011a0,0,0,0,1,0,0c.033-.012.066-.022.1-.031l.006,0,.009,0c.029-.008.058-.014.088-.02l.008,0,.009,0,.009,0c.032-.005.064-.01.1-.013H50.9c.034,0,.067,0,.1,0m-15.546.014a1.254,1.254,0,0,1,.222.02c.029.005.057.012.086.019l.074.022.057.018h0c.02.007.04.014.059.023l.059.026,3.454,1.664.882.425.708.341h0l.006,0,.005,0h-1.78l-3.834.006h0c-.032,0-.064,0-.1,0l-.031,0h0c-.034,0-.068-.008-.1-.014l-.015,0c-.035-.007-.069-.014-.1-.024h0c-.034-.009-.067-.02-.1-.033l-.014-.005c-.032-.012-.063-.025-.093-.039h0c-.031-.015-.061-.031-.091-.049l-.029-.018-.059-.039-.032-.024-.052-.041-.031-.027-.048-.045-.034-.034-.015-.016c-.02-.021-.039-.043-.057-.066s-.049-.066-.072-.1h0c-.017-.026-.033-.053-.048-.08l-.006-.011c-.013-.024-.025-.048-.037-.072l-.005-.012c-.01-.023-.02-.046-.029-.069l-.007-.019c-.01-.027-.019-.055-.027-.082a1.271,1.271,0,0,1-.048-.281c0-.024,0-.048,0-.072s0-.048,0-.072.005-.064.009-.1l0-.024c0-.032.01-.064.018-.1h0c.007-.032.016-.064.026-.095l.007-.023c.01-.031.021-.062.033-.091s.015-.035.023-.053l.023-.046h0q.022-.043.047-.083c.014-.023.029-.047.045-.069s.028-.039.043-.057.044-.053.068-.078l.019-.02q.028-.029.058-.056l.019-.017c.024-.021.048-.04.074-.059l.007-.006q.045-.033.093-.062c.035-.021.071-.041.109-.06l.023-.01c.024-.008.048-.014.071-.023s.057-.021.086-.03a1.264,1.264,0,0,1,.192-.044l.043,0,.043,0,.025,0,.042-.006.033,0m7.775,1.813h.021a1.152,1.152,0,0,1,.206.021h0l.026.005h0l.019,0h0l.015,0h0l.026.007.056.016.055.019c.029.011.057.023.084.035l.022.01.019.01a1.264,1.264,0,0,1,.129.075l.046.032s0,0,0,0l.014.011.009.007L44,670.3a0,0,0,0,1,0,0l.018.015.018.015h0c.026.023.051.047.076.071s.047.05.069.077l.014.016.013.018c.021.027.04.055.059.084s.036.059.053.089h0l.008.016a.2.2,0,0,1,.012.027l0,0,.02.043c.01.023.019.046.028.07l.006.018c0,.013.008.026.012.038s.015.048.021.073.006.027.009.04,0,.022.007.033.008.051.011.077l0,.019c0,.026,0,.052.005.078h0a0,0,0,0,1,0,0h0a.137.137,0,0,1,0,.023c0,.008,0,.016,0,.023v0a.436.436,0,0,1,0,.046h0c0,.018,0,.036,0,.054s0,.025,0,.038v.014c0,.016,0,.032-.007.048v0c0,.017-.006.034-.009.05s0,.016,0,.023l0,.018c0,.017-.008.034-.013.05s-.012.038-.018.056-.022.061-.035.091a.4.4,0,0,1-.018.036l0,.007v0l-.012.025h0l0,.005-.006.012c-.016.031-.034.061-.053.09s-.039.057-.06.085l-.026.033c-.02.024-.04.048-.062.071s-.054.054-.083.079h0l-.024.021,0,0-.009.007h0l-.019.016-.019.012h0v0h0q-.046.035-.094.064l-.049.029-.029.015-.041.02-.033.015-.053.021-.054.018-.056.016h0a.439.439,0,0,1-.045.011h0l-.028.006-.015,0h-.01l-.045.008-.05.006h0c-.034,0-.068.005-.1.006h-.045c-.032,0-.063,0-.094,0l-.057-.007-.056-.01h0l-.011,0a.2.2,0,0,1-.033-.008h0a.329.329,0,0,1-.043-.011h0q-.056-.015-.11-.035l-.054-.021-.032-.015-.04-.019-.031-.016-.05-.028q-.049-.029-.095-.063h0v0h0a.19.19,0,0,1-.027-.019l-.009-.008h0l-.005,0,0,0a.358.358,0,0,1-.027-.024,1.274,1.274,0,0,1-.121-.121l-.025-.028-.028-.035a1.212,1.212,0,0,1-.112-.171v0l-.008-.014a.173.173,0,0,1-.013-.029v0l-.014-.027-.007-.016h0c-.013-.03-.024-.06-.035-.091h0c-.008-.023-.015-.045-.021-.068s-.006-.024-.009-.036l0-.019,0-.023c0-.017-.006-.033-.009-.05v0c0-.016,0-.032-.007-.048v-.014c0-.013,0-.026,0-.039s0-.036,0-.054,0-.008,0-.012a.3.3,0,0,1,0-.036v0a.438.438,0,0,1,0-.048h0c0-.018,0-.036,0-.054s0-.025,0-.038v-.014c0-.008,0-.016,0-.024,0-.026.008-.052.013-.077l0-.022,0-.018c.008-.031.016-.061.026-.091s.025-.071.04-.1h0a.2.2,0,0,1,.009-.021l.011-.021v0a.143.143,0,0,1,.009-.021l.012-.021h0v0c.017-.031.035-.061.054-.09s.039-.057.06-.084l.026-.032a1.232,1.232,0,0,1,.145-.148h0l.018-.016.018-.014,0,0,.018-.015.018-.013,0,0h0c.021-.016.044-.03.066-.045l.047-.028c.02-.012.041-.024.062-.035l.04-.019h0c.031-.014.062-.027.094-.039h0q.048-.017.1-.03h0l.015-.005.031-.008h0l.045-.01h0a1.092,1.092,0,0,1,.112-.016c.03,0,.06,0,.091,0h.024m7.772,1.723a1.1,1.1,0,0,1,.13.007c.025,0,.05,0,.075,0l.031,0,.04.006a.851.851,0,0,1,.1.022.779.779,0,0,1,.1.035c.03.013.059.028.088.042l.022.012.067.039.016.01a1.422,1.422,0,0,1,.159.116h0a1.338,1.338,0,0,1,.256.288c.018.027.034.054.049.082l0,.009c.014.026.027.052.039.079l.008.016c.011.025.021.05.03.075l.009.025c.008.023.016.047.022.07l.009.034c.005.021.011.043.015.064s.005.03.008.045.006.037.008.056,0,.04,0,.061,0,.029,0,.043c0,.035,0,.07,0,.106a1.3,1.3,0,0,1-.1.431c-.015.037-.033.073-.051.108s-.041.073-.063.107-.043.063-.067.093a1.274,1.274,0,0,1-.147.156,1.3,1.3,0,0,1-.193.142c-.035.021-.07.041-.107.059h0l-.031.013-.011,0-.024.008-.02.006-.029.01h0l-.036.013h0c-.027.009-.054.017-.081.024l-.02.005c-.027.007-.054.013-.082.018l-.062.009-.013,0h-.008l-.075.006H51l-.066,0h-.019l-.05,0-.02,0-.062-.009h0l-.066-.014-.009,0-.009,0-.047-.013h0l-.019-.006-.025-.009-.04-.014h0l-.03-.011-.043-.018-.007,0-.027-.012-3.458-1.664-.88-.424-.707-.34-.01-.005,0,0h.8l.98,0,1.035,0,2.8,0m-9.93.013,0,0h0l-.005,0h0l-.706.342-.881.427-3.452,1.671-.076.033h0l-.041.016-.041.014-.058.018-.01,0h0c-.032.008-.064.016-.1.022h-.006l-.012,0c-.032.005-.064.01-.1.013h-.016c-.034,0-.067,0-.1,0h-.067l-.024,0-.043,0h-.008l-.019,0-.04-.006-.022,0h-.006l-.04-.008-.028-.006-.037-.009h0l-.027-.008-.04-.013-.026-.009-.043-.016-.021-.008-.062-.028h0c-.037-.018-.072-.037-.106-.058a1.282,1.282,0,0,1-.267-.213q-.039-.041-.075-.085c-.017-.021-.033-.043-.049-.065l-.014-.021-.031-.048-.015-.025c-.01-.017-.019-.034-.028-.051l-.012-.023c-.012-.025-.024-.05-.034-.075s-.018-.045-.026-.068c-.014-.04-.026-.081-.036-.122l0-.019c0-.015-.005-.031-.008-.046-.007-.037-.012-.074-.016-.111,0-.018,0-.036-.005-.055s0-.051,0-.077,0-.048,0-.072a1.267,1.267,0,0,1,.016-.142q.006-.035.014-.07a1.278,1.278,0,0,1,.127-.334c.015-.028.032-.055.05-.083l.034-.049c.012-.017.025-.034.038-.05h0c.022-.028.046-.055.07-.08l.024-.024c.017-.017.034-.034.051-.049l.03-.026.051-.041.033-.024c.025-.018.049-.035.075-.051h0c.024-.015.049-.028.074-.041l.019-.01c.025-.013.05-.025.076-.036l.02-.008c.033-.013.066-.026.1-.036s.061-.017.092-.025.062-.014.094-.019l.064-.008h.008l.029,0c.032,0,.064,0,.1,0h5.614m3.889.885,0,0,.008,0,.706.339.885.425,3.458,1.66.029.015c.029.015.057.03.085.046h0c.025.016.05.032.074.05l.023.017.048.038.023.02c.018.016.035.031.052.048l.009.009c.022.021.043.043.063.065s.054.065.079.1.048.07.069.107c.011.018.021.037.031.056s.022.044.031.066l.009.021.019.048.009.024c.006.016.011.033.016.049l.007.022c.007.024.014.048.019.072s.008.039.012.058.006.039.009.058a1.258,1.258,0,0,1,0,.315q0,.036-.01.071a1.271,1.271,0,0,1-.054.207c-.012.035-.026.069-.042.1s-.029.063-.046.094-.024.042-.037.063a1.294,1.294,0,0,1-.085.119c-.02.026-.042.05-.064.074l-.017.018c-.022.023-.045.046-.069.068l-.052.044-.043.033-.009.007-.026.018-.051.033-.032.019c-.027.016-.055.031-.083.045h0c-.028.014-.058.026-.087.037l-.022.009c-.03.011-.06.021-.09.03l-.07.018-.079.015c-.029,0-.058.008-.087.011s-.082.006-.123.006l-.061,0h-.02l-.041,0-.023,0-.038,0-.024,0-.036-.006-.021,0-.079-.019-.027-.008-.058-.019L49,677.435l-.021-.008-.028-.012-.058-.027-.019-.01c-.025-.013-.05-.027-.074-.041s-.045-.028-.067-.044a1.3,1.3,0,0,1-.184-.156l-.043-.047-.042-.05-2.391-3-.611-.767-.489-.613,0-.007,0,0,0,0m-3.459,0,0,0h0l-.007.008-.488.614-.609.766-2.386,3-.04.048c-.014.016-.028.031-.042.046l-.046.046q-.041.039-.085.074a1.248,1.248,0,0,1-.187.123q-.049.026-.1.048a1.265,1.265,0,0,1-.245.076,1.32,1.32,0,0,1-.259.027h0c-.041,0-.081,0-.121-.006l-.025,0c-.028,0-.056-.008-.083-.012s-.058-.012-.087-.019l-.009,0c-.028-.007-.056-.016-.084-.025l-.042-.015h0l-.077-.032h0a1.248,1.248,0,0,1-.115-.06l-.036-.022-.043-.028c-.023-.016-.046-.032-.068-.05l-.05-.041-.009-.008q-.029-.026-.057-.053l-.025-.027c-.025-.027-.049-.054-.072-.083s-.029-.037-.042-.056l-.006-.009q-.026-.037-.05-.076L35.9,676.9c-.016-.027-.03-.054-.044-.081l-.013-.027-.013-.029-.014-.034-.01-.027-.012-.034c-.009-.027-.017-.054-.025-.081l-.007-.029c-.006-.024-.011-.048-.016-.073s0-.024-.006-.036-.006-.042-.008-.064,0-.024,0-.035,0-.051,0-.077,0-.036,0-.054v0q0-.03,0-.061v0q0-.031.006-.062c.005-.04.012-.08.021-.12.005-.024.012-.047.018-.07a1.293,1.293,0,0,1,.061-.169c.01-.022.02-.043.03-.064a1.274,1.274,0,0,1,.268-.354c.024-.023.05-.044.076-.064h0l.059-.044.005,0c.021-.015.043-.029.065-.042,0,0,0,0,0,0,.034-.02.071-.04.109-.058l3.454-1.667.881-.425.707-.341h0l.006,0,.007,0m2.688.611,0,.007,0,0,.49.613.611.765.132.166.319.4,1.943,2.432.037.05.035.051h0c.015.024.03.048.044.073l.013.024c.009.017.018.034.026.051l.013.029c.007.016.014.032.02.048l.012.032c.006.016.012.033.017.049l.007.022c.006.021.012.042.017.063l0,.014c.006.025.011.051.015.076l0,.019c0,.02.006.04.008.06l0,.022c0,.026,0,.052,0,.079s0,.043,0,.064a1.313,1.313,0,0,1-.032.258c-.009.04-.02.079-.033.118a1.293,1.293,0,0,1-.062.156,1.277,1.277,0,0,1-.3.4,1.291,1.291,0,0,1-.142.11q-.038.025-.077.048t-.081.042l-.027.011-.013,0-.019.006-.027.009-.008,0-.031.011-.058.02a1.279,1.279,0,0,1-.141.034l-.047.009c-.029,0-.058.008-.088.01s-.061,0-.092,0h-.008q-.05,0-.1,0c-.029,0-.059-.006-.088-.01s-.081-.015-.12-.025l-.069-.018-.044-.016-.025-.009-.019-.007-.023-.008-.047-.015-.023-.01h0c-.026-.012-.051-.026-.075-.04l-.019-.011c-.024-.014-.048-.029-.071-.045h0c-.035-.024-.069-.049-.1-.076h0c-.029-.024-.057-.05-.083-.077l-.023-.024c-.017-.018-.033-.036-.049-.055s-.041-.048-.059-.074a1.238,1.238,0,0,1-.069-.105,1.26,1.26,0,0,1-.059-.112q-.027-.058-.048-.119a1.292,1.292,0,0,1-.038-.135L44.589,675l-.109-.478-.109-.478-.174-.765,0-.008,0-.007m-1.917,0,0,.007,0,.008-.173.766-.215.954-.844,3.742c-.007.034-.016.067-.027.1-.005.016-.011.032-.016.048l-.018.047c-.008.021-.017.042-.027.063l-.009.018-.022.043-.011.02-.024.042-.01.017-.013.02q-.025.039-.053.075l-.011.016c-.016.021-.033.041-.051.061l-.015.016-.041.043-.018.017c-.025.024-.05.047-.077.069s-.056.043-.086.063l-.019.013c-.029.019-.059.037-.09.054l-.059.031-.007,0-.009,0-.023.008-.031.01-.008,0-.016.006-.034.012-.025.009-.029.01-.047.013-.031.008-.064.013-.048.009-.043,0-.043,0c-.034,0-.068,0-.1,0h-.073l-.073-.005h0l-.077-.01-.012,0-.012,0-.053-.011-.011,0-.017,0-.025-.007-.024-.007-.017-.005-.011,0-.051-.018-.024-.009c-.025-.01-.049-.02-.073-.032a1.314,1.314,0,0,1-.128-.07,1.294,1.294,0,0,1-.118-.083l-.055-.046a1.278,1.278,0,0,1-.191-.212c-.022-.031-.043-.064-.063-.1l-.008-.014c-.017-.031-.034-.062-.048-.093s-.018-.041-.026-.062-.019-.05-.028-.076-.01-.03-.014-.045-.013-.047-.018-.071a1.3,1.3,0,0,1-.033-.259c0-.02,0-.041,0-.061s0-.013,0-.02,0-.027,0-.041,0-.016,0-.023,0-.025,0-.037l0-.024c0-.012,0-.024.006-.036l0-.024c0-.012,0-.025.008-.037l0-.022c0-.013.007-.027.01-.04l0-.018c.006-.019.012-.039.018-.058a1.263,1.263,0,0,1,.047-.119q.02-.044.044-.086t.05-.084c.011-.017.022-.034.034-.051l.037-.048,2.379-2.988.62-.779.488-.613v0l.01-.012m.957.217,0,.017.175.764.223.971.778,3.4.074.324c.005.021.009.041.013.061s.006.04.009.061v0a0,0,0,0,0,0,0h0c0,.029.006.057.008.086,0,.007,0,.014,0,.021,0,.029,0,.057,0,.086s0,.085-.01.127c0,.021-.006.042-.009.063s-.009.048-.015.071v0q-.008.034-.018.068t-.027.08l-.015.038-.011.026c-.009.02-.017.04-.027.059l-.013.026c-.01.018-.019.036-.03.054l-.023.036-.026.041q-.026.039-.056.075t-.047.056l-.033.035-.017.018a1.274,1.274,0,0,1-.481.3c-.03.01-.06.019-.091.028l-.023.006c-.031.008-.062.015-.094.02h0a1.3,1.3,0,0,1-.218.018h0c-.034,0-.068,0-.1,0l-.032,0-.068-.009-.037-.006-.063-.013-.036-.009c-.03-.008-.059-.016-.088-.027l-.067-.026-.065-.029a1.265,1.265,0,0,1-.185-.109,1.283,1.283,0,0,1-.165-.14l-.006-.006-.044-.047q-.024-.027-.047-.056h0c-.021-.026-.04-.052-.058-.08l-.008-.013c-.016-.025-.032-.049-.047-.075h0c-.016-.028-.031-.057-.045-.086a1.268,1.268,0,0,1-.081-.222c-.008-.03-.014-.06-.02-.09l0-.025q-.006-.036-.01-.074c0-.007,0-.013,0-.02,0-.031,0-.062,0-.093,0,0,0-.009,0-.013,0-.032,0-.064,0-.1h0c0-.017,0-.034,0-.051s0-.034,0-.051h0q.007-.051.02-.1h0l.856-3.738.219-.956.175-.764,0-.01v-.006h0m0-13.7a3.515,3.515,0,0,0-2.034.646c-.082.058-.161.119-.241.187l-.028.024q-.056.049-.11.1h0c-.072-.023-.13-.037-.161-.045h-.005c-.074-.019-.151-.037-.227-.051-.041-.008-.088-.017-.148-.026s-.1-.013-.149-.018a2.511,2.511,0,0,0-.357-.026,2.483,2.483,0,0,0-.319.021l-.035,0c-.05.005-.1.011-.148.018-.093.014-.187.031-.278.052s-.181.045-.27.073c-.051.016-.1.033-.153.052a2.524,2.524,0,0,0-.328.131,3.581,3.581,0,0,0-.341.189,3.5,3.5,0,0,0-1.41,1.712l-.043.007h0c-.058.009-.115.02-.172.032l-.033.007c-.051.011-.1.024-.157.038l-.048.013h0c-.068.019-.136.041-.2.064a3.513,3.513,0,0,0-1.028.57c-.065.052-.13.108-.2.171l0,0-.046.044c-.065.063-.126.126-.182.189-.043.048-.086.1-.127.151s-.1.124-.144.195l-.034.051c-.045.067-.086.133-.124.2l0,0-.025.044c-.029.053-.058.108-.086.166l-.029.061c-.032.069-.061.139-.088.207-.009.023-.018.047-.026.07-.018.049-.035.1-.051.152h0v0q-.012.04-.024.08c-.019.067-.036.135-.051.2-.007.031-.013.06-.018.09h0c-.009.045-.017.092-.024.14h0c0,.032-.01.065-.014.1-.008.064-.014.129-.018.194v0c0,.049-.005.1-.007.147v.021c0,.054,0,.109,0,.163h0v.014c0,.044,0,.089.008.139v.008l0,.022-.106.074h0l-.042.031c-.061.046-.123.1-.183.147l0,0-.052.046c-.052.046-.1.1-.155.148l-.057.059h0c-.068.073-.13.144-.188.217-.041.052-.081.1-.118.158s-.087.127-.13.2-.082.139-.119.21l-.007.013c-.019.038-.038.075-.055.112l-.005.012c-.017.036-.04.086-.064.145-.032.079-.062.16-.091.248l-.02.064c-.027.089-.049.172-.068.254s-.034.167-.048.258c0,.024-.006.045-.009.066-.012.091-.02.177-.025.261q-.006.1-.005.2c0,.065,0,.131.006.2a3.5,3.5,0,0,0,.132.775c.021.074.046.149.075.228l.021.056,0,0v0c.024.062.049.122.075.181l.017.038,0,0c.028.059.057.117.089.177l.03.055.037.064-.044.077a3.506,3.506,0,0,0-.349.919c-.014.063-.027.128-.038.193a3.545,3.545,0,0,0-.043.391c0,.064-.005.13-.005.2s0,.137.007.21.01.124.013.151v0c.01.093.023.187.04.278.006.038.015.085.028.141l0,.011c.007.029.013.053.018.072.027.106.058.208.092.305.022.063.046.125.071.185s.058.133.093.2l.035.068h0c.024.045.048.09.072.132v0l.038.064h0c.026.044.054.086.083.131l.041.06c.045.065.089.124.135.181.066.082.135.162.207.237a3.515,3.515,0,0,0,.578.486v.007c0,.055-.007.111-.009.166v.012h0c0,.048,0,.1,0,.148,0,.072,0,.143.01.212,0,.03.005.062.009.093v.006c.006.059.014.117.023.174,0,.032.01.065.017.1.012.064.026.13.042.2h0c.006.027.013.053.02.08v0c.02.075.043.15.068.222.011.032.022.063.034.094l.029.074c.012.031.026.062.039.094l.037.082.034.071c.039.079.078.152.12.223l.029.048c.037.06.076.12.116.178l.031.044c.037.052.075.1.114.15.057.072.119.142.187.214.014.015.039.043.072.075q.077.077.158.149l.043.037c.041.035.079.067.119.1.059.046.121.092.184.135l.007,0c.049.033.091.059.114.073s.058.036.1.059a3.528,3.528,0,0,0,.318.164c.068.031.138.06.207.086l.005,0,.117.041c.074.025.151.048.23.068h0l.027.007c.078.02.157.037.234.05l.123.02.01.026,0,.007c.024.06.048.116.073.171.034.074.072.148.114.224.01.019.023.043.039.07.054.094.113.185.174.271a3.518,3.518,0,0,0,.524.585c.05.044.1.087.151.127a3.516,3.516,0,0,0,.67.419l0,0c.067.032.136.062.209.091h0l.072.027c.048.018.092.033.136.047l.005,0,.041.013.037.011.066.018.066.018h0l.029.007.045.011c.049.011.1.021.147.03l.068.012c.071.012.139.021.208.028l.036,0c.056.005.114.009.172.012l.073,0H39.8c.089,0,.172,0,.254-.011.054,0,.1-.009.124-.013s.07-.008.121-.015.1-.017.141-.025.1-.02.169-.036l.081-.021c.037-.01.079-.021.13-.037h0a3.5,3.5,0,0,0,.88.6c.058.028.118.055.178.08s.124.049.185.071.153.05.24.074l.1.025c.059.014.117.026.174.037l.1.018c.056.009.113.016.175.023l.1.01c.089.007.175.011.261.011h.014a3.54,3.54,0,0,0,.589-.049h0c.083-.014.167-.032.257-.054l.065-.017c.088-.023.169-.049.249-.076A3.5,3.5,0,0,0,45.426,682c.076-.061.15-.125.221-.192l.01,0h0c.08.025.146.041.182.05h0c.116.029.226.051.334.067h0c.077.011.156.02.234.027h0c.091.007.184.011.275.011h.06c.074,0,.145,0,.215-.01h0c.078-.006.157-.015.234-.027h0c.058-.009.1-.018.143-.025a3.516,3.516,0,0,0,.373-.092l.011,0c.059-.018.107-.036.136-.047l.019-.007.069-.023a2.481,2.481,0,0,0,.256-.105c.075-.036.149-.075.221-.116s.144-.086.212-.131a3.507,3.507,0,0,0,1.213-1.4c.04-.084.078-.171.112-.26l.061-.009c.075-.012.15-.027.221-.043s.128-.031.191-.05c.08-.023.161-.05.247-.082l.061-.023c.082-.032.157-.065.231-.1l.006,0h0c.076-.037.152-.077.233-.123l.085-.051h0c.047-.029.092-.058.134-.087l.076-.052,0,0,.039-.028c.037-.027.07-.053.1-.079l0,0c.05-.04.1-.081.143-.121.062-.056.124-.116.188-.183l.045-.048c.064-.069.12-.134.173-.2a3.529,3.529,0,0,0,.228-.322c.036-.057.07-.115.1-.172.044-.08.086-.163.127-.254s.081-.19.114-.284a3.516,3.516,0,0,0,.147-.569c.011-.064.02-.13.028-.195a3.53,3.53,0,0,0,.022-.393c0-.094,0-.19-.012-.287a3.5,3.5,0,0,0,.784-.724c.063-.079.124-.163.184-.254s.121-.194.174-.295.1-.2.139-.3a3.536,3.536,0,0,0,.264-1.172c0-.094.006-.192,0-.29,0-.057-.005-.1-.007-.129s-.006-.088-.014-.155v0c-.008-.068-.017-.122-.021-.151v0h0c0-.024-.011-.068-.022-.124-.015-.073-.029-.135-.04-.175v0c-.008-.03-.015-.061-.024-.091l0-.006c-.018-.063-.038-.128-.06-.192l-.023-.066c-.026-.072-.054-.141-.084-.208l0,0-.017-.038,0,0c-.035-.076-.07-.146-.108-.216l-.017-.031-.037-.065.043-.075c.032-.058.062-.117.091-.176s.068-.149.1-.231c.019-.049.038-.1.055-.148l0-.008c.02-.058.037-.113.052-.166a3.506,3.506,0,0,0,.113-1.368,3.576,3.576,0,0,0-.246-.951c-.025-.061-.052-.121-.081-.18a3.5,3.5,0,0,0-.547-.818c-.06-.068-.126-.135-.194-.2l0,0c-.044-.042-.081-.074-.1-.09s-.057-.05-.1-.089l0,0c-.05-.04-.1-.08-.153-.117l-.046-.033h0l-.055-.038q0-.043.006-.086a3.511,3.511,0,0,0-.262-1.538c-.025-.06-.052-.121-.081-.18a3.528,3.528,0,0,0-.421-.669l0,0c-.041-.051-.084-.1-.128-.151a3.568,3.568,0,0,0-.281-.28c-.049-.043-.1-.086-.151-.126s-.105-.081-.158-.119-.108-.074-.163-.108a3.537,3.537,0,0,0-.344-.189c-.059-.028-.119-.055-.179-.08a3.52,3.52,0,0,0-.753-.216l-.091-.014a3.516,3.516,0,0,0-.3-.605c-.034-.055-.071-.11-.11-.163a3.507,3.507,0,0,0-.835-.831c-.055-.039-.11-.075-.166-.11s-.113-.068-.171-.1-.114-.06-.172-.088l-.037-.017c-.047-.022-.093-.042-.139-.061h0l-.075-.03c-.024-.009-.061-.024-.107-.04h0l-.084-.028-.106-.033-.088-.024-.1-.026-.092-.019-.1-.019-.091-.014-.1-.013-.1-.009-.1-.008-.095,0-.1,0h0l-.108,0h-.026l-.068,0-.1.008-.1.009-.1.014-.092.014-.1.019-.094.02c-.049.011-.089.022-.108.027h0l-.081.022-.072.022-.093-.083-.05-.042c-.065-.054-.121-.1-.148-.117l-.006,0c-.023-.017-.065-.049-.12-.086l-.056-.037c-.077-.05-.15-.095-.224-.136s-.15-.079-.234-.118l-.062-.028c-.083-.036-.162-.068-.242-.1-.061-.021-.124-.042-.187-.06a3.512,3.512,0,0,0-.976-.138Z" transform="translate(-31.94 -659.78)"/></svg>