<svg xmlns="http://www.w3.org/2000/svg" width="23.521" height="22.59" viewBox="0 0 23.521 22.59"><defs><style>.a{fill:#024e8a;}</style></defs><path class="a" d="M-549.039,62.808a9.2,9.2,0,0,1-5.908-1.937l-2.424-2.264a1.116,1.116,0,0,1-.093-.077l-5.457-5.077a2.84,2.84,0,0,1-.139-4.01,2.834,2.834,0,0,1,.492-.42,2.841,2.841,0,0,1,.179-3.66,2.835,2.835,0,0,1,.845-.623,2.837,2.837,0,0,1,.664-2.674,2.818,2.818,0,0,1,1.976-.9,2.818,2.818,0,0,1,1.663.469,2.859,2.859,0,0,1,.385-.519,2.839,2.839,0,0,1,4.008-.137l3.782,3.5,0,0,.961.9-.018-.507a3.162,3.162,0,0,1,2.706-3.243A3.018,3.018,0,0,1-542,44.078l1.216,6.5a10.15,10.15,0,0,1-1.133,8.625,8.047,8.047,0,0,1-5.95,3.538A10.257,10.257,0,0,1-549.039,62.808Zm-6.995-6a1.077,1.077,0,0,1,.1.08l2.514,2.348a7.52,7.52,0,0,0,5.3,1.285,5.909,5.909,0,0,0,4.361-2.578l.026-.037a7.074,7.074,0,0,0,.874-1.933,8.056,8.056,0,0,0-.071-4.789,1.138,1.138,0,0,1-.033-.133l-1.228-6.567a.792.792,0,0,0-.9-.64.932.932,0,0,0-.8.956l.112,3.2a1.116,1.116,0,0,1-.653,1.055,1.116,1.116,0,0,1-1.224-.2l-1.185-1.106q-.04-.031-.077-.066l-1.671-1.566-3.782-3.5a.606.606,0,0,0-.857.026.6.6,0,0,0-.162.433.6.6,0,0,0,.191.421l3.771,3.521a1.116,1.116,0,0,1,.054,1.577,1.116,1.116,0,0,1-1.577.054l-5.448-5.086a.6.6,0,0,0-.433-.162.6.6,0,0,0-.421.191.6.6,0,0,0,.029.853l.832.777.006.005,4.609,4.3a1.116,1.116,0,0,1,.054,1.577,1.116,1.116,0,0,1-1.577.054l-4.612-4.306a.6.6,0,0,0-.431-.16.6.6,0,0,0-.421.191.6.6,0,0,0-.162.433.6.6,0,0,0,.191.421l4.609,4.3a1.116,1.116,0,0,1,.054,1.577,1.116,1.116,0,0,1-1.577.054l-2.933-2.739a.6.6,0,0,0-.433-.162.6.6,0,0,0-.421.191.6.6,0,0,0,.029.853Z" transform="translate(563.821 -40.219)"/></svg>