<svg xmlns="http://www.w3.org/2000/svg" width="21.765" height="21.767" viewBox="0 0 21.765 21.767"><defs><style>.a{fill:#fff;}</style></defs><path class="a" d="M-518.138,682.72h-5a1.759,1.759,0,0,1-1.757-1.757v-5.407h-4.73v5.407a1.759,1.759,0,0,1-1.757,1.757h-5a1.759,1.759,0,0,1-1.757-1.757V671.72a1.767,1.767,0,0,1,.523-1.251l9.118-9.008a1.747,1.747,0,0,1,1.235-.507,1.745,1.745,0,0,1,1.24.513l9.131,9.1a1.768,1.768,0,0,1,.517,1.245v9.152A1.759,1.759,0,0,1-518.138,682.72Zm-4.528-2.232h4.053v-8.479l-8.658-8.629-8.642,8.538v8.57h4.053v-5.407a1.759,1.759,0,0,1,1.757-1.757h5.68a1.759,1.759,0,0,1,1.757,1.757Z" transform="translate(538.146 -660.954)"/></svg>