<svg xmlns="http://www.w3.org/2000/svg" width="23.022" height="23.022" viewBox="0 0 23.022 23.022"><defs><style>.a{fill:#024e8a;}</style></defs><g transform="translate(-221 -132.167)"><path class="a" d="M-3441.283,686.35a11.434,11.434,0,0,1-8.139-3.372,11.434,11.434,0,0,1-3.372-8.14,11.434,11.434,0,0,1,3.372-8.14,11.435,11.435,0,0,1,8.139-3.372,11.437,11.437,0,0,1,8.14,3.372,11.437,11.437,0,0,1,3.372,8.14,11.437,11.437,0,0,1-3.372,8.14A11.436,11.436,0,0,1-3441.283,686.35Zm0-20.79a9.29,9.29,0,0,0-9.279,9.279,9.29,9.29,0,0,0,9.279,9.279,9.289,9.289,0,0,0,9.279-9.279A9.29,9.29,0,0,0-3441.283,665.559Z" transform="translate(3673.794 -531.16)"/><path class="a" d="M-3258.347,761.2a1.737,1.737,0,0,0-1.735,1.735,1.737,1.737,0,0,0,1.735,1.735,1.737,1.737,0,0,0,1.735-1.735A1.737,1.737,0,0,0-3258.347,761.2Z" transform="translate(3490.858 -624.068)"/><rect class="a" width="2.232" height="8.168" transform="translate(231.395 142.256)"/></g></svg>