<svg xmlns="http://www.w3.org/2000/svg" width="18.353" height="21.005" viewBox="0 0 18.353 21.005"><defs><style>.a{fill:#024e8a;}</style></defs><g transform="translate(0 0.001)"><path class="a" d="M-2749.147,686.4a5.6,5.6,0,0,1-5.592-5.591,5.6,5.6,0,0,1,5.592-5.591,5.6,5.6,0,0,1,5.591,5.591A5.6,5.6,0,0,1-2749.147,686.4Zm0-8.951a3.363,3.363,0,0,0-3.36,3.359,3.363,3.363,0,0,0,3.36,3.359,3.363,3.363,0,0,0,3.359-3.359A3.363,3.363,0,0,0-2749.147,677.452Z" transform="translate(2758.324 -675.22)"/><path class="a" d="M-2807.052,924.1h-18.353v-3.942c0-1.122.662-2.7,3.816-3.87a17.1,17.1,0,0,1,5.36-1.014,17.1,17.1,0,0,1,5.361,1.014c3.154,1.166,3.816,2.749,3.816,3.87Zm-16.12-2.232h13.888v-1.71c0-.55-.926-1.247-2.358-1.777a14.875,14.875,0,0,0-4.586-.875,14.871,14.871,0,0,0-4.586.875c-1.433.53-2.358,1.227-2.358,1.777Z" transform="translate(2825.405 -903.094)"/></g></svg>