<svg xmlns="http://www.w3.org/2000/svg" width="23.022" height="23.022" viewBox="0 0 23.022 23.022"><defs><style>.a{fill:#fff;}</style></defs><g transform="translate(-197.978 -161.443)"><path class="a" d="M47.3,1854.807a11.511,11.511,0,1,1,8.14-3.371A11.436,11.436,0,0,1,47.3,1854.807Zm0-20.79a9.279,9.279,0,1,0,9.279,9.279A9.29,9.29,0,0,0,47.3,1834.017Z" transform="translate(162.193 -1670.342)"/><path class="a" d="M181.73,1969.169l7.549-4.359a.689.689,0,0,0,0-1.194l-7.549-4.359a.69.69,0,0,0-1.035.6v8.717A.69.69,0,0,0,181.73,1969.169Z" transform="translate(24.634 -1791.258)"/></g></svg>