<svg xmlns="http://www.w3.org/2000/svg" width="25.346" height="18.605" viewBox="0 0 25.346 18.605"><defs><style>.a{fill:#fff;}</style></defs><g transform="translate(-40.374 -110.509)"><path class="a" d="M186.937,199.508l6.81-3.932a.622.622,0,0,0,0-1.077l-6.81-3.932a.622.622,0,0,0-.933.539v7.864A.622.622,0,0,0,186.937,199.508Z" transform="translate(-136.984 -75.226)"/><path class="a" d="M63.66,110.509H42.433a2.06,2.06,0,0,0-2.059,2.059v14.487a2.06,2.06,0,0,0,2.059,2.059H63.66a2.063,2.063,0,0,0,2.059-2.059V112.568A2.063,2.063,0,0,0,63.66,110.509Zm-.317,16.229H42.75V112.885H63.344Z"/><g transform="translate(44.351 114.048)"><path class="a" d="M.932,0h0a.93.93,0,0,1,.93.93v.663a.93.93,0,0,1-.93.93h0A.93.93,0,0,1,0,1.594V.932A.932.932,0,0,1,.932,0Z"/><rect class="a" width="1.862" height="2.524" rx="0.931" transform="translate(0 4.502)"/><path class="a" d="M.932,0h0a.93.93,0,0,1,.93.93v.664a.93.93,0,0,1-.93.93h0A.93.93,0,0,1,0,1.594V.932A.932.932,0,0,1,.932,0Z" transform="translate(0 9.003)"/><rect class="a" width="1.862" height="2.524" rx="0.931" transform="translate(15.643)"/><rect class="a" width="1.862" height="2.524" rx="0.931" transform="translate(15.643 4.502)"/><path class="a" d="M.932,0h0a.93.93,0,0,1,.93.93v.664a.93.93,0,0,1-.93.93h0A.93.93,0,0,1,0,1.594V.932A.932.932,0,0,1,.932,0Z" transform="translate(15.643 9.003)"/></g></g></svg>