<svg xmlns="http://www.w3.org/2000/svg" width="21.886" height="18.246" viewBox="0 0 21.886 18.246"><defs><style>.a{fill:#024e8a;}</style></defs><path class="a" d="M116.707-508.962H106.014a3.781,3.781,0,0,0-3.777,3.777v2.342h2.434v-2.342a1.344,1.344,0,0,1,1.343-1.343h10.693a1.344,1.344,0,0,1,1.343,1.343v10.693a1.344,1.344,0,0,1-1.343,1.343H106.014a1.344,1.344,0,0,1-1.343-1.343v-2.341h-2.434v2.341a3.781,3.781,0,0,0,3.777,3.777h10.693a3.781,3.781,0,0,0,3.777-3.777v-10.693A3.781,3.781,0,0,0,116.707-508.962Z" transform="translate(-98.598 508.962)"/><path class="a" d="M44.038-443.082l1.721,1.721,5.193-5.193a1.217,1.217,0,0,0,0-1.721l-5.193-5.193-1.721,1.721,3.116,3.116H36.446v2.434H47.154Z" transform="translate(-36.446 456.538)"/></svg>