<svg xmlns="http://www.w3.org/2000/svg" width="26.396" height="18.246" viewBox="0 0 26.396 18.246"><defs><style>.a{fill:#024e8a;}</style></defs><g transform="translate(0 0)"><path class="a" d="M179.293,142.233H168.6a3.781,3.781,0,0,0-3.777,3.777v2.342h2.434V146.01a1.344,1.344,0,0,1,1.343-1.343h10.693a1.344,1.344,0,0,1,1.343,1.343V156.7a1.344,1.344,0,0,1-1.343,1.343H168.6a1.344,1.344,0,0,1-1.343-1.343v-2.341h-2.434V156.7a3.781,3.781,0,0,0,3.777,3.777h10.693a3.781,3.781,0,0,0,3.777-3.777V146.01A3.781,3.781,0,0,0,179.293,142.233Z" transform="translate(-156.673 -142.233)"/><path class="a" d="M32.355,205v-2.434H21.648l3.116-3.116-1.721-1.721-5.193,5.193a1.217,1.217,0,0,0,0,1.721l5.193,5.193,1.721-1.721L21.648,205Z" transform="translate(-17.493 -194.656)"/></g></svg>