<svg xmlns="http://www.w3.org/2000/svg" width="21.21" height="17.604" viewBox="0 0 21.21 17.604"><defs><style>.a{fill:#024e8a;}</style></defs><path class="a" d="M-3425.844,123.041a1.116,1.116,0,0,1-.7-.245l-4.854-3.883h-4.768a1.116,1.116,0,0,1-1.116-1.116v-6.192a1.116,1.116,0,0,1,1.116-1.116h4.768l4.854-3.883a1.116,1.116,0,0,1,1.181-.134,1.116,1.116,0,0,1,.633,1.006v14.447a1.116,1.116,0,0,1-.633,1.006A1.116,1.116,0,0,1-3425.844,123.041Zm-9.2-6.36H-3431a1.116,1.116,0,0,1,.7.245l3.346,2.677v-9.8l-3.346,2.677a1.116,1.116,0,0,1-.7.245h-4.043Z" transform="translate(3437.28 -105.9)"/><path class="a" d="M-3170.312,114.853l-1.579-1.578.789-.789a8.9,8.9,0,0,0,0-12.869l-.789-.789,1.579-1.578.789.789a11.307,11.307,0,0,1,3.42,8.022,11.318,11.318,0,0,1-3.42,8Zm-2.064-3.1-1.578-1.578.789-.789a4.974,4.974,0,0,0,0-6.677l-.789-.789,1.578-1.578.789.789a6.964,6.964,0,0,1,1.941,4.917,6.964,6.964,0,0,1-1.941,4.917Z" transform="translate(3187.313 -97.249)"/></svg>